<svg width="50" height="50" viewBox="0 0 50 50" fill="none" xmlns="http://www.w3.org/2000/svg">
<circle cx="25" cy="25" r="25" fill="#F4F3F6"/>
<path d="M26.9582 25L32.9304 19.0417C33.1919 18.7802 33.3388 18.4254 33.3388 18.0556C33.3388 17.6857 33.1919 17.331 32.9304 17.0695C32.6689 16.8079 32.3141 16.661 31.9443 16.661C31.5744 16.661 31.2197 16.8079 30.9582 17.0695L24.9998 23.0417L19.0415 17.0695C18.78 16.8079 18.4253 16.661 18.0554 16.661C17.6855 16.661 17.3308 16.8079 17.0693 17.0695C16.8077 17.331 16.6608 17.6857 16.6608 18.0556C16.6608 18.4254 16.8077 18.7802 17.0693 19.0417L23.0415 25L17.0693 30.9584C16.9391 31.0875 16.8358 31.2411 16.7653 31.4103C16.6948 31.5796 16.6584 31.7611 16.6584 31.9445C16.6584 32.1278 16.6948 32.3094 16.7653 32.4786C16.8358 32.6479 16.9391 32.8015 17.0693 32.9306C17.1984 33.0608 17.352 33.1641 17.5213 33.2346C17.6905 33.3051 17.872 33.3414 18.0554 33.3414C18.2387 33.3414 18.4203 33.3051 18.5895 33.2346C18.7588 33.1641 18.9124 33.0608 19.0415 32.9306L24.9998 26.9584L30.9582 32.9306C31.0873 33.0608 31.2409 33.1641 31.4101 33.2346C31.5794 33.3051 31.7609 33.3414 31.9443 33.3414C32.1276 33.3414 32.3092 33.3051 32.4784 33.2346C32.6477 33.1641 32.8013 33.0608 32.9304 32.9306C33.0606 32.8015 33.1639 32.6479 33.2344 32.4786C33.3049 32.3094 33.3412 32.1278 33.3412 31.9445C33.3412 31.7611 33.3049 31.5796 33.2344 31.4103C33.1639 31.2411 33.0606 31.0875 32.9304 30.9584L26.9582 25Z" fill="black"/>
</svg>
