<svg width="270" height="270" viewBox="0 0 270 270" fill="none" xmlns="http://www.w3.org/2000/svg">
<g clip-path="url(#clip0_3_337)">
<path d="M196.876 163.131C206.195 163.131 213.751 155.575 213.751 146.256C213.751 136.937 206.195 129.381 196.876 129.381C187.557 129.381 180.001 136.937 180.001 146.256C180.001 155.575 187.557 163.131 196.876 163.131ZM196.876 140.628C199.975 140.628 202.5 143.15 202.5 146.256C202.5 149.354 199.975 151.875 196.876 151.875C193.774 151.875 191.248 149.354 191.248 146.256C191.248 143.15 193.774 140.628 196.876 140.628Z" fill="#080602"/>
<path d="M208.123 140.628C217.442 140.628 224.999 133.072 224.999 123.753C224.999 114.434 217.442 106.878 208.123 106.878C198.804 106.878 191.248 114.434 191.248 123.753C191.248 133.072 198.804 140.628 208.123 140.628ZM208.123 118.125C211.226 118.125 213.751 120.645 213.751 123.752C213.751 126.85 211.226 129.38 208.123 129.38C205.025 129.38 202.5 126.85 202.5 123.752C202.5 120.646 205.025 118.125 208.123 118.125Z" fill="#535049"/>
<path d="M219.375 118.125C228.694 118.125 236.25 110.569 236.25 101.25C236.25 91.9305 228.694 84.3744 219.375 84.3744C210.055 84.3744 202.499 91.9305 202.499 101.25C202.499 110.569 210.055 118.125 219.375 118.125ZM219.375 95.631C222.476 95.631 224.998 98.1523 224.998 101.25C224.998 104.357 222.477 106.878 219.375 106.878C216.272 106.878 213.751 104.357 213.751 101.25C213.751 98.1523 216.273 95.631 219.375 95.631Z" fill="#080602"/>
<path d="M230.626 95.6311C239.945 95.6311 247.501 88.075 247.501 78.756C247.501 69.4285 239.945 61.8809 230.626 61.8809C221.307 61.8809 213.751 69.4285 213.751 78.756C213.751 88.075 221.307 95.6311 230.626 95.6311ZM230.626 73.1285C233.724 73.1285 236.25 75.6493 236.25 78.756C236.25 81.8543 233.724 84.3751 230.626 84.3751C227.524 84.3751 224.999 81.8543 224.999 78.756C224.999 75.6488 227.524 73.1285 230.626 73.1285Z" fill="#535049"/>
<path d="M253.125 50.6248C262.444 50.6248 270 43.0771 270 33.7507C270 24.4311 262.444 16.8751 253.125 16.8751C243.806 16.8751 236.25 24.4311 236.25 33.7507C236.25 43.0771 243.805 50.6248 253.125 50.6248ZM253.125 28.1311C256.227 28.1311 258.749 30.6524 258.749 33.7507C258.749 36.8569 256.227 39.3777 253.125 39.3777C250.022 39.3777 247.501 36.8569 247.501 33.7507C247.501 30.6524 250.022 28.1311 253.125 28.1311Z" fill="#535049"/>
<path d="M241.873 73.1284C251.192 73.1284 258.749 65.5724 258.749 56.2528C258.749 46.9338 251.193 39.3777 241.873 39.3777C232.554 39.3777 224.998 46.9338 224.998 56.2528C224.998 65.5724 232.554 73.1284 241.873 73.1284ZM241.873 50.6248C244.975 50.6248 247.501 53.1461 247.501 56.2528C247.501 59.3511 244.975 61.8808 241.873 61.8808C238.775 61.8808 236.25 59.3511 236.25 56.2528C236.25 53.1461 238.775 50.6248 241.873 50.6248Z" fill="#080602"/>
<path d="M180.001 185.625C192.426 185.625 202.5 175.556 202.5 163.131C202.5 150.706 192.426 140.628 180.001 140.628C167.571 140.628 157.498 150.705 157.498 163.131C157.498 175.557 167.571 185.625 180.001 185.625ZM180.001 151.875C186.201 151.875 191.248 156.925 191.248 163.13C191.248 169.327 186.202 174.377 180.001 174.377C173.796 174.377 168.75 169.327 168.75 163.13C168.75 156.926 173.796 151.875 180.001 151.875Z" fill="#535049"/>
<path d="M89.994 78.7554C112.538 78.7554 133.727 87.5307 149.663 103.466C165.598 119.401 174.373 140.587 174.373 163.13C174.373 185.666 165.598 206.85 149.663 222.786C133.727 238.722 112.538 247.505 89.994 247.505C67.4666 247.505 46.274 238.722 30.3386 222.786C14.4022 206.85 5.61902 185.666 5.61902 163.13C5.61902 140.587 14.4022 119.401 30.3386 103.466C46.274 87.5307 67.4666 78.7554 89.994 78.7554Z" fill="#EDE8E3"/>
<path opacity="0.2" d="M30.3385 222.787C46.2738 238.723 67.4664 247.506 89.9938 247.506C92.8368 247.506 95.6466 247.366 98.4316 247.086C79.0843 245.182 61.1381 236.72 47.2131 222.787C31.2777 206.851 22.494 185.667 22.494 163.131C22.494 140.587 31.2777 119.402 47.2131 103.467C61.1381 89.5331 79.0848 81.0795 98.4316 79.1678C95.6466 78.8957 92.8368 78.7559 89.9938 78.7559C67.4664 78.7559 46.2738 87.5312 30.3385 103.467C14.4021 119.402 5.61887 140.587 5.61887 163.131C5.61887 185.667 14.4021 206.851 30.3385 222.787Z" fill="white"/>
<path d="M89.9939 253.125C139.704 253.125 180.001 212.833 180.001 163.131C180.001 113.42 139.704 73.1284 89.9939 73.1284C40.2915 73.1284 -0.000137329 113.42 -0.000137329 163.131C-0.000137329 212.833 40.2915 253.125 89.9939 253.125ZM34.3101 107.447C41.5519 100.204 49.9728 94.5267 59.3499 90.563C69.0486 86.4596 79.3643 84.3749 89.9934 84.3749C100.639 84.3749 110.947 86.4596 120.645 90.563C130.026 94.5267 138.447 100.204 145.682 107.447C152.921 114.681 158.598 123.102 162.565 132.479C166.669 142.178 168.749 152.493 168.749 163.131C168.749 173.76 166.669 184.077 162.565 193.774C158.598 203.151 152.921 211.572 145.682 218.815C138.448 226.049 130.026 231.726 120.645 235.69C110.947 239.793 100.639 241.878 89.9934 241.878C79.3643 241.878 69.0481 239.793 59.3499 235.69C49.9728 231.726 41.5519 226.049 34.3101 218.815C27.0752 211.572 21.3981 203.151 17.4345 193.774C13.3311 184.076 11.2548 173.76 11.2548 163.131C11.2548 152.493 13.3311 142.178 17.4345 132.479C21.3981 123.102 27.0757 114.68 34.3101 107.447Z" fill="#080602"/>
</g>
<defs>
<clipPath id="clip0_3_337">
<rect width="270" height="270" fill="white" transform="matrix(-1 0 0 -1 270 270)"/>
</clipPath>
</defs>
</svg>
