<svg width="221" height="232" viewBox="0 0 221 232" fill="none" xmlns="http://www.w3.org/2000/svg">
<path d="M183.115 103.041H37.907V228.573H183.115V103.041Z" fill="url(#paint0_linear_2_296)"/>
<path d="M180.034 106.135V225.48H41.0007V106.135H180.034ZM186.221 99.9475H34.8132V231.667H186.221V99.9475Z" fill="#F0EBE6"/>
<path d="M41.0007 165.807H149.901" stroke="#1A1F71" stroke-width="6.1875" stroke-miterlimit="10"/>
<path d="M158.267 5.00009L5 72.3433L20.9099 108.553L174.177 41.2094L158.267 5.00009Z" fill="url(#paint1_linear_2_296)" stroke="#F0EBE6" stroke-width="6.1875" stroke-miterlimit="10"/>
<path d="M179.626 195.544C196.049 195.544 209.363 182.231 209.363 165.807C209.363 149.384 196.049 136.07 179.626 136.07C163.202 136.07 149.888 149.384 149.888 165.807C149.888 182.231 163.202 195.544 179.626 195.544Z" fill="#F0EBE6" stroke="url(#paint2_linear_2_296)" stroke-width="6.1875" stroke-miterlimit="10"/>
<path d="M179.625 150.858V180.756" stroke="#25D366" stroke-width="6.1875" stroke-miterlimit="10"/>
<path d="M194.587 165.807H164.677" stroke="#25D366" stroke-width="6.1875" stroke-miterlimit="10"/>
<path d="M81.2073 140.339C84.9198 144.052 93.0873 165.807 93.0873 165.807C93.0873 165.807 71.3692 157.677 67.6195 153.927C66.7257 153.033 66.0167 151.972 65.533 150.804C65.0493 149.637 64.8003 148.385 64.8003 147.121C64.8003 145.857 65.0493 144.605 65.533 143.437C66.0167 142.27 66.7257 141.209 67.6195 140.315C69.4247 138.51 71.8729 137.495 74.4258 137.495C75.6898 137.495 76.9415 137.744 78.1093 138.228C79.2771 138.712 80.3382 139.421 81.232 140.315L81.2073 140.339Z" stroke="#1A1F71" stroke-width="6.1875" stroke-miterlimit="10"/>
<path d="M104.967 140.339C101.255 144.052 93.0872 165.807 93.0872 165.807C93.0872 165.807 114.805 157.677 118.555 153.927C119.449 153.033 120.158 151.972 120.641 150.804C121.125 149.637 121.374 148.385 121.374 147.121C121.374 145.857 121.125 144.605 120.641 143.437C120.158 142.27 119.449 141.209 118.555 140.315C117.661 139.421 116.6 138.712 115.432 138.228C114.264 137.744 113.013 137.495 111.749 137.495C110.485 137.495 109.233 137.744 108.065 138.228C106.897 138.712 105.836 139.421 104.942 140.315L104.967 140.339Z" stroke="#1A1F71" stroke-width="6.1875" stroke-miterlimit="10"/>
<path d="M80.8359 192.067L93.0872 165.807" stroke="#1A1F71" stroke-width="6.1875" stroke-miterlimit="10"/>
<path d="M105.338 192.067L93.0872 165.807" stroke="#1A1F71" stroke-width="6.1875" stroke-miterlimit="10"/>
<path d="M198.287 97.1261L196.27 108.412C196.205 108.704 196.043 108.965 195.81 109.152C195.577 109.339 195.288 109.441 194.989 109.441C194.69 109.441 194.401 109.339 194.168 109.152C193.935 108.965 193.773 108.704 193.708 108.412L191.357 97.1879C190.838 94.3785 189.519 91.7785 187.559 89.6999C185.598 87.6212 183.08 86.1521 180.306 85.4688L169.428 83.1052C169.166 83.0212 168.937 82.8561 168.775 82.6337C168.613 82.4113 168.525 82.1431 168.525 81.8677C168.525 81.5923 168.613 81.3241 168.775 81.1017C168.937 80.8792 169.166 80.7142 169.428 80.6302L180.232 77.9448C182.984 77.1747 185.456 75.6266 187.35 73.4864C189.245 71.3462 190.481 68.7048 190.911 65.8792L192.929 54.6056C192.993 54.3139 193.155 54.053 193.388 53.866C193.621 53.679 193.911 53.577 194.209 53.577C194.508 53.577 194.798 53.679 195.031 53.866C195.264 54.053 195.426 54.3139 195.49 54.6056L197.841 65.8297C198.359 68.6414 199.677 71.244 201.637 73.325C203.597 75.4061 206.117 76.877 208.892 77.5612L219.77 79.9124C220.032 79.9964 220.261 80.1615 220.423 80.3839C220.586 80.6063 220.673 80.8746 220.673 81.1499C220.673 81.4253 220.586 81.6935 220.423 81.916C220.261 82.1384 220.032 82.3035 219.77 82.3874L208.967 85.0852C206.218 85.8535 203.748 87.3979 201.854 89.5334C199.96 91.6688 198.722 94.3049 198.287 97.1261Z" fill="url(#paint3_linear_2_296)"/>
<defs>
<linearGradient id="paint0_linear_2_296" x1="81.8506" y1="244.562" x2="139.184" y2="87.0404" gradientUnits="userSpaceOnUse">
<stop stop-color="#1A1F71"/>
<stop offset="0.06" stop-color="#313A85"/>
<stop offset="0.14" stop-color="#51609F"/>
<stop offset="0.24" stop-color="#6D80B7"/>
<stop offset="0.34" stop-color="#839AC9"/>
<stop offset="0.46" stop-color="#95AFD8"/>
<stop offset="0.59" stop-color="#A1BDE2"/>
<stop offset="0.74" stop-color="#A8C5E8"/>
<stop offset="1" stop-color="#AAC8EA"/>
</linearGradient>
<linearGradient id="paint1_linear_2_296" x1="78.6569" y1="118.741" x2="100.511" y2="-5.1819" gradientUnits="userSpaceOnUse">
<stop stop-color="#1A1F71"/>
<stop offset="0.06" stop-color="#313A85"/>
<stop offset="0.14" stop-color="#51609F"/>
<stop offset="0.24" stop-color="#6D80B7"/>
<stop offset="0.34" stop-color="#839AC9"/>
<stop offset="0.46" stop-color="#95AFD8"/>
<stop offset="0.59" stop-color="#A1BDE2"/>
<stop offset="0.74" stop-color="#A8C5E8"/>
<stop offset="1" stop-color="#AAC8EA"/>
</linearGradient>
<linearGradient id="paint2_linear_2_296" x1="173.933" y1="198.143" x2="185.33" y2="133.471" gradientUnits="userSpaceOnUse">
<stop stop-color="#1F8654"/>
<stop offset="0.02" stop-color="#1F8C55"/>
<stop offset="0.16" stop-color="#21A65B"/>
<stop offset="0.3" stop-color="#23BA60"/>
<stop offset="0.47" stop-color="#24C863"/>
<stop offset="0.67" stop-color="#25D065"/>
<stop offset="1" stop-color="#25D366"/>
</linearGradient>
<linearGradient id="paint3_linear_2_296" x1="189.798" y1="108.585" x2="199.364" y2="54.3952" gradientUnits="userSpaceOnUse">
<stop stop-color="#1F8654"/>
<stop offset="0.02" stop-color="#1F8C55"/>
<stop offset="0.16" stop-color="#21A65B"/>
<stop offset="0.3" stop-color="#23BA60"/>
<stop offset="0.47" stop-color="#24C863"/>
<stop offset="0.67" stop-color="#25D065"/>
<stop offset="1" stop-color="#25D366"/>
</linearGradient>
</defs>
</svg>
